<svg version="1.0" xmlns="http://www.w3.org/2000/svg"
 width="500" height="520" viewBox="0 0 500 520"
 preserveAspectRatio="xMidYMid meet">
<g transform="translate(0.000000,520.000000) scale(0.078003,-0.077961)"
fill="#000000" stroke="none">

<path d="M2030 6449 c-34 -14 -70 -49 -81 -78 -14 -35 7 -86 44 -113 31 -23
39 -23 422 -30 215 -5 812 -10 1328 -13 844 -5 941 -4 963 10 33 21 31 58 -3
85 -42 33 -178 96 -263 122 l-75 23 -1155 2 c-762 1 -1163 -1 -1180 -8z"/>
<path d="M1475 6443 c-11 -3 -32 -17 -47 -31 -51 -48 -31 -136 37 -162 39 -15
180 -12 220 4 33 14 65 59 65 91 0 32 -32 77 -65 91 -33 13 -164 18 -210 7z"/>
<path d="M2201 5809 c-24 -4 -54 -15 -66 -23 -20 -13 -91 -16 -445 -18 l-422
-3 -29 -33 c-42 -47 -40 -94 7 -138 l35 -34 414 0 c390 0 415 -1 456 -20 43
-19 72 -20 1640 -20 l1596 0 21 23 c35 37 30 97 -10 144 -46 53 -65 68 -128
100 l-55 28 -1485 2 c-817 0 -1505 -3 -1529 -8z"/>
<path d="M659 5741 c-23 -23 -29 -38 -29 -71 0 -89 35 -110 190 -110 126 0
160 11 186 61 22 43 11 91 -27 123 -29 25 -36 26 -161 26 l-130 0 -29 -29z"/>
<path d="M3255 5110 c-1387 -5 -1411 -5 -1445 -25 -33 -19 -58 -20 -477 -25
l-442 -5 -30 -29 c-24 -23 -31 -38 -31 -69 0 -49 13 -73 53 -94 29 -16 77 -19
472 -23 379 -5 446 -8 480 -22 37 -16 189 -17 1913 -18 1839 0 1873 0 1911 20
63 31 87 113 56 187 -21 50 -42 72 -90 94 -37 17 -72 18 -500 16 -253 -1
-1094 -4 -1870 -7z"/>
<path d="M304 5026 c-26 -26 -34 -42 -34 -71 0 -80 40 -105 168 -105 76 0 94
3 123 23 63 43 61 128 -5 168 -25 15 -51 19 -124 19 -94 0 -94 0 -128 -34z"/>
<path d="M3200 4389 c-245 -3 -650 -7 -900 -8 -430 -1 -457 -3 -499 -21 -41
-19 -66 -20 -477 -20 -464 0 -476 -1 -519 -50 -13 -15 -20 -36 -20 -65 0 -29
7 -50 20 -65 43 -49 55 -50 523 -50 408 0 443 -1 483 -19 42 -18 100 -19 1317
-25 l1273 -6 52 39 c96 72 199 89 302 50 66 -24 139 -94 168 -159 28 -62 28
-160 1 -221 -86 -188 -322 -239 -482 -104 l-33 28 -502 -2 c-276 -1 -763 -5
-1082 -9 -524 -6 -583 -9 -612 -25 -28 -15 -66 -17 -334 -17 -324 0 -366 -5
-400 -48 -37 -47 -19 -120 36 -147 28 -12 84 -15 346 -15 297 0 315 -1 356
-21 43 -21 49 -21 1426 -27 760 -3 1566 -6 1790 -7 l409 0 24 28 c34 40 30 74
-18 168 -65 125 -58 123 -368 129 -272 5 -287 8 -309 57 -6 13 -11 73 -11 133
0 102 2 110 26 139 l26 31 257 0 c247 0 259 1 301 23 51 26 90 89 90 146 0 46
-36 119 -73 145 -28 21 -34 21 -1085 21 -581 0 -1257 -3 -1502 -6z"/>
<path d="M982 3605 c-38 -32 -46 -65 -28 -109 22 -53 57 -66 184 -66 97 0 113
3 142 23 58 38 64 104 15 153 -23 23 -30 24 -154 24 -123 0 -131 -1 -159 -25z"/>
<path d="M5075 3020 c-16 -4 -640 -8 -1385 -9 -1327 -1 -1356 -2 -1399 -21
-41 -19 -66 -20 -440 -20 -363 0 -399 -2 -437 -19 -81 -37 -88 -119 -14 -168
33 -23 34 -23 442 -23 382 0 411 -1 446 -19 36 -18 102 -19 1914 -31 2067 -13
1899 -17 1963 49 25 27 30 41 33 96 5 77 -16 119 -76 153 -40 22 -42 22 -528
21 -269 -1 -502 -5 -519 -9z"/>
<path d="M778 2944 c-34 -18 -48 -43 -48 -84 0 -42 15 -67 50 -85 40 -20 286
-21 334 -1 83 35 88 134 9 175 -34 17 -311 14 -345 -5z"/>
<path d="M3695 2350 c-994 -5 -1072 -6 -1102 -22 -29 -16 -71 -18 -440 -18
-377 0 -411 -2 -449 -19 -76 -34 -95 -95 -48 -150 14 -17 42 -35 62 -41 22 -6
198 -10 445 -10 329 0 413 -3 435 -14 22 -11 231 -15 1212 -21 1970 -13 1799
-14 1842 13 40 25 78 91 78 135 0 40 -23 88 -59 122 l-32 30 -437 0 c-240 0
-918 -2 -1507 -5z"/>
<path d="M1194 2290 c-30 -12 -64 -58 -64 -86 0 -39 21 -72 55 -89 45 -21 222
-21 273 0 51 22 82 54 82 85 0 33 -44 77 -91 90 -41 12 -226 12 -255 0z"/>
<path d="M3945 1700 c-651 -5 -713 -6 -742 -22 -29 -16 -71 -18 -450 -18 -389
0 -421 -2 -460 -19 -47 -22 -63 -45 -63 -94 0 -27 8 -42 35 -66 l36 -31 424 0
c392 0 429 -1 482 -19 56 -19 106 -19 1178 -23 1109 -3 1120 -3 1155 17 38 22
80 93 80 135 -1 49 -36 108 -79 129 -45 23 23 23 -1596 11z"/>
<path d="M1790 1623 c-40 -37 -47 -78 -20 -121 28 -45 59 -54 178 -50 103 3
104 3 133 36 31 34 36 66 18 106 -19 42 -65 56 -178 56 -96 0 -102 -1 -131
-27z"/>
<path d="M4805 1099 c-104 -5 -356 -14 -560 -20 -660 -19 -749 -23 -772 -36
-15 -9 -84 -13 -240 -13 -200 0 -221 -2 -251 -20 -60 -37 -67 -98 -15 -146 26
-24 27 -24 250 -24 161 0 230 -4 246 -12 32 -19 341 -27 1117 -32 726 -5 764
-2 861 51 59 32 104 82 113 125 8 41 -17 94 -56 118 -31 19 -48 20 -268 18
-129 0 -320 -5 -425 -9z"/>
<path d="M2576 994 c-35 -36 -36 -95 -1 -129 22 -23 32 -25 110 -25 118 0 154
21 155 92 0 28 -7 42 -31 62 -28 24 -38 26 -118 26 -82 0 -90 -2 -115 -26z"/>
<path d="M3796 463 c-4 -5 -75 -10 -158 -13 -149 -5 -150 -5 -174 -33 -33 -39
-30 -64 13 -105 71 -67 163 -92 370 -99 118 -5 150 -3 186 11 88 33 129 115
93 184 -27 52 -59 62 -199 62 -68 0 -127 -3 -131 -7z"/>
</g>
</svg>
